# xmcd
#
# Track frame offsets: 
#        182
#        15427
#        28135
#        41200
#        54142
#        68917
#        82522
#        95697
#        107872
#        122712
#        140257
#        159847
#        182620
#
# Disc length: 2634 seconds
#
# Revision: 13
# Processed by: cddbd v1.5.2PL0 Copyright (c) Steve Scherf et al.
# Submitted via: ExactAudioCopy v1.0b3
#
DISCID=9b0a480d
DTITLE=Hank Williams III - Risin' Outlaw
DYEAR=1999
DGENRE=Country
TTITLE0=I Don't Know
TTITLE1=You're The Reason
TTITLE2=If The Shoe Fits
TTITLE3=87 Southbound
TTITLE4=Lonesome For You
TTITLE5=What Did Love Ever Do To You
TTITLE6=On My Own
TTITLE7=Honky Tonk Girls
TTITLE8=Devil's Daughter
TTITLE9=Cocaine Blues
TTITLE10=Thunderstorms and Neon Signs
TTITLE11=Why Don't You Leave Me Alone
TTITLE12=Blue Devil
EXTD=YEAR: 1999
EXTT0=
EXTT1=
EXTT2=
EXTT3=
EXTT4=
EXTT5=
EXTT6=
EXTT7=
EXTT8=
EXTT9=
EXTT10=
EXTT11=
EXTT12=
PLAYORDER=
